<?xml version="1.0" standalone="no"?>
<!DOCTYPE svg PUBLIC "-//W3C//DTD SVG 1.1//EN" "http://www.w3.org/Graphics/SVG/1.1/DTD/svg11.dtd" >
<svg xmlns="http://www.w3.org/2000/svg">
<metadata></metadata>
<defs>
<font id="fontsselectezymedium" horiz-adv-x="897" >
<font-face units-per-em="2048" ascent="1638" descent="-410" />
<missing-glyph horiz-adv-x="614" />
<glyph horiz-adv-x="2048" />
<glyph horiz-adv-x="2048" />
<glyph unicode="&#xd;" horiz-adv-x="681" />
<glyph unicode=" "  horiz-adv-x="614" />
<glyph unicode="&#x09;" horiz-adv-x="614" />
<glyph unicode="&#xa0;" horiz-adv-x="614" />
<glyph unicode="0" horiz-adv-x="894" d="M84 533.5q12 68.5 49 132.5q39 72 101.5 118.5t132.5 49.5q41 14 84 14q49 0 57 -2q27 -4 57 -25q121 -82 127 -211q4 -113 -78 -215q-81 -100 -192 -125q-143 -66 -258 21q-55 41 -73.5 107.5t-6.5 135zM123 543q-33 -152 61 -224q43 -30 92 -36q-39 16 -71 47 q-88 86 -82 213zM160 513q4 -93 69 -155q78 -76 183 -53q80 37 139 115q74 94 70 188q-4 102 -109 158q-14 6 -27 12q-10 -14 -24 -6q-37 20 -76 23q-8 0 -16 -2q-49 -23 -86 -74q-61 -86 -60 -191q2 -100 66 -125q80 -29 225 76q14 12 25.5 -3t-4.5 -25q-160 -119 -259 -82 q-88 33 -90 159q-1 109 60 203q-23 -23 -41 -53q-49 -72 -45 -165z" />
<glyph unicode="1" horiz-adv-x="552" d="M141 571q8 43 37 86q8 35 25 56q29 35 67 22q10 -4 19 -8q6 -2 14 -6q18 -12 29 -41q4 -8 0 -14q0 -4 2 -9q18 -39 13 -82t-32 -77q-27 -37 -65 -45q-45 -10 -84 24q-37 33 -25 94zM186 508q2 -2 4 -2q27 -25 52 -19q16 5 28 17q-35 -18 -77 2q-2 2 -7 2zM209 614 q0 -20 4 -39q6 -20 14 -22q20 -6 32.5 2t12.5 21.5t-12 24.5t-41 11q-4 0 -10 2zM227 649q49 -4 72 -35q2 14 0 29q-18 27 -41 23q-14 -2 -31 -17z" />
<glyph unicode="2" horiz-adv-x="1191" d="M-2 369q88 123 221 268q12 14 26.5 2t2.5 -27q-133 -145 -221 -264q-10 -16 -25.5 -4.5t-3.5 25.5zM125.5 338.5q-12.5 14.5 1.5 26.5q139 127 248 260q12 14 26.5 1.5t1.5 -26.5q-111 -135 -251 -264q-14 -12 -26.5 2.5zM313 367q16 25 37 51l47 55l41 47l49 53 q35 37 43 45q14 14 27.5 1t1.5 -25l-43 -45l-49 -53q-16 -16 -41 -45l-45 -56l-39 -49q-10 -16 -25.5 -4.5t-3.5 25.5zM455 367q20 23 71.5 75t86 91.5t57.5 78.5q10 14 25.5 5t6.5 -25q-25 -41 -61.5 -83t-88.5 -95.5t-69 -71.5q-12 -14 -26 -1.5t-2 26.5zM606 373 q129 166 211 245q12 14 25.5 1t-0.5 -25q-78 -80 -207 -246q-10 -14 -25.5 -2.5t-3.5 27.5zM745 371q129 166 211 245q12 14 25.5 1t-0.5 -25q-78 -80 -207 -246q-10 -14 -25.5 -2.5t-3.5 27.5z" />
<glyph unicode="3" horiz-adv-x="1323" d="M4 336q37 41 105 127l104 127q2 0 3 1t1 3q14 12 27 -2q66 -74 153 -230q14 18 88 107q63 80 93 133q8 14 22 8q10 4 18 -2q33 -27 62 -75t43 -81.5t33 -89.5l80 101q61 76 90 127q4 10 14 10h2q15 12 25 -4q88 -127 149 -266q8 -18 -9 -25.5t-24 8.5q-57 129 -133 244 q-29 -47 -86 -117q-74 -92 -96 -125q-10 -14 -25 -4q-6 4 -8 11q-4 4 -6 10q-2 4 -6 14q-61 174 -119 225q-31 -51 -90 -125q-80 -96 -96 -120q4 -12 -10.5 -20.5t-24.5 7.5l-2 2q-2 2 -4 7q-92 164 -148 229q-31 -35 -92 -113q-70 -88 -104 -127q-12 -14 -26.5 -1.5 t-2.5 26.5z" />
<glyph unicode="4" horiz-adv-x="1021" d="M-13.5 275.5q-11.5 15.5 5.5 25.5q35 27 201 162q125 100 208 155q6 4 15 3q10 1 16 -7q23 -23 66 -51l71 -51l119 -104q78 -68 121 -99q16 -10 5 -25.5t-26 -2.5q-51 35 -124 100q-96 86 -119 102q-12 10 -68 49q-41 29 -63 50q-80 -53 -199 -148q-166 -135 -203 -162 q-14 -12 -25.5 3.5zM-5 103.5q-11 15.5 5 25.5q35 27 201 162q125 100 209 155q16 8 26 -6v-4q23 -20 62 -47l71 -51q29 -23 117 -102q72 -63 119 -99q16 -10 5 -25.5t-26 -2.5q-49 35 -122 98q-88 80 -117 102q-12 10 -68 49q-39 27 -61 48q-78 -51 -193 -144 q-188 -152 -203 -162q-14 -12 -25 3.5z" />
<glyph unicode="5" horiz-adv-x="669" d="M8 578q68 94 144 180q12 14 26.5 2t1.5 -27q-76 -84 -143 -176q-10 -16 -25.5 -4.5t-3.5 25.5zM57 446q-8 12 0 23q0 6 6 10l89 99q59 68 65 75q12 12 27 2q8 0 14 -8q18 -33 65.5 -96.5t67.5 -99.5q4 -6 2 -13q2 -10 -4 -18q-23 -25 -74 -98q-47 -63 -77 -99 q-12 -12 -27 -2q-6 0 -12 6q-33 39 -85.5 125t-56.5 94zM92 459l51 -86q47 -78 76 -113q27 29 66 84q51 70 71 94q-18 33 -61 90.5t-62 85.5q-129 -145 -141 -155zM285 154l147 202q10 16 25.5 5t3.5 -25l-47 -64l-56 -75l-45 -64q-10 -14 -24 -3.5t-4 24.5z" />
<glyph unicode="6" horiz-adv-x="1232" d="M-16 504q68 94 195.5 117.5t228.5 -25.5q29 -12 90 -57q51 -39 84 -50q115 -39 240.5 5.5t170.5 150.5q6 16 23.5 9t9.5 -25q-51 -121 -190.5 -169t-266.5 -7q-37 14 -94 55q-57 43 -84 55q-90 45 -204.5 22.5t-174.5 -102.5q-10 -16 -25 -4.5t-3 25.5z" />
<glyph unicode="7" d="M7.5 296.5q-9.5 15.5 6.5 25.5q436 242 639 405q14 12 26.5 -2t-1.5 -27q-207 -166 -647 -409q-14 -8 -23.5 7.5zM7.5 505q-9.5 15 6.5 25q436 242 639 406q14 12 26.5 -2t-1.5 -27q-207 -166 -647 -409q-14 -8 -23.5 7zM16 99.5q-9 15.5 7 25.5q436 242 639 405 q14 12 26 -2t-2 -26q-207 -166 -647 -410q-14 -8 -23 7.5z" />
<glyph unicode="8" horiz-adv-x="899" d="M-2 671.5q12 14.5 27 2.5q96 -82 170 -154q68 76 139 166q12 14 26 2q0 -2 2 -2q90 -74 168 -154q63 72 129 154q12 14 26.5 2t2.5 -26q-66 -82 -131 -154q76 -80 133 -158q12 -14 -3 -25.5t-25 5.5q-57 74 -130 149q-111 -119 -180 -164q-2 -2 -4 -2q-14 -12 -24 4 q-57 74 -129 150q-104 -111 -170 -154q-16 -8 -25.5 7.5t4.5 25.5q63 39 164 148q-76 78 -168 151q-14 12 -2 26.5zM219 494q68 -70 123 -142q63 45 164 154q-72 72 -156 141z" />
<glyph unicode="9" horiz-adv-x="1036" d="M-18 475q-8 84 57 148q72 72 156 63q66 -8 149 -70l37 -26q29 33 49 53q53 57 114.5 84t145.5 10q98 -18 131 -114q27 -70 -3 -132.5t-93 -90t-131 -7.5q-53 18 -135 84l-72 60q-72 -82 -125 -119q-88 -57 -172 -49q-47 6 -76 37q-20 23 -28 59q-4 4 -4 10zM18 510 q2 -6 2 -10q0 -47 21 -70q18 -20 53 -24q70 -6 148 45q50 32 116 110l-34 27q-76 55 -134 61q-68 8 -127 -51q-41 -43 -45 -88zM410 565l71 -59q78 -61 125 -76q84 -27 147.5 34.5t34.5 145.5q-29 76 -106 90q-72 14 -124 -8t-101 -74q-18 -18 -47 -53z" />
<glyph unicode="A" horiz-adv-x="937" d="M12 50q0 18 19 18q125 0 241.5 54t197.5 142t119 209q23 73 23 147q0 48 -10 97q-14 80 -39 112q-25 -98 -65 -186q-8 -16 -24.5 -8t-8.5 24q47 96 70 209q2 4 4 6q0 4 2 7q6 6 16 6q6 0 12 -2q37 -25 148 -39q16 -2 16 -17v-3q-2 -18 -20 -17q-78 10 -105 18 q16 -35 31 -102q10 -52 10 -103q0 -82 -25 -161q-40 -129 -127 -222.5t-210 -150.5t-256 -57q-19 0 -19 19z" />
<glyph unicode="B" horiz-adv-x="972" d="M25 168q0 119 67.5 225.5t179.5 188.5q184 133 392 159q-70 18 -111 37q-16 8 -8 24q5 11 14 12q4 0 10 -3q41 -18 185 -55q15 -5 15 -17q0 -3 -1 -6q-2 -4 -4 -6q-2 -6 -6 -8l-29 -23q-14 -10 -29 -28l-20 -27q-6 -6 -27.5 -34.5t-23.5 -31.5q-10 -16 -25.5 -4.5 t-3.5 25.5q63 88 86 111q-205 -20 -391 -156q-106 -78 -170 -176.5t-64 -206.5q0 -18 -18 -18t-18 18z" />
<glyph unicode="C" horiz-adv-x="610" d="M117 735q23 41 67.5 112t57.5 93q4 4 10 6q6 5 12 5q7 0 12 -7l5 -8q12 -14 57 -86q37 -55 63 -88q6 -6 6 -13t-8 -13q-14 -12 -26 1q-29 35 -66 92l-28 45q-4 -75 -4 -189q0 -57 1 -124q6 -369 7 -371q0 -18 -18.5 -18t-18.5 18q0 55 -1 117t-3 136.5t-2 115.5 q-2 74 -2 138q0 96 4 171q-72 -113 -92 -149q-8 -16 -24 -8q-11 5 -12 14q0 5 3 10z" />
<glyph unicode="D" horiz-adv-x="759" d="M-221 600q0 18 18 18q121 0 348.5 3.5t329.5 3.5l-53 32q-92 57 -100 62q-16 9 -8 25q5 11 14 11q4 0 10 -3q31 -16 104 -64q66 -43 101 -59q6 -4 8 -11q5 -6 5 -12q0 -7 -7 -12q-2 -2 -6 -4q-27 -20 -88 -60q-59 -39 -88 -63q-6 -6 -13 -6q-8 0 -14 8q-12 14 2 27 q31 27 94 65l41 27q-102 0 -330.5 -3t-349.5 -3q-18 0 -18 18z" />
<glyph unicode="E" horiz-adv-x="847" d="M-131 553v4q0 12 14 16q23 16 84 58q57 35 86 63q6 6 12 6q7 0 13 -7q14 -13 0 -27q-31 -29 -90 -66l-45 -31q62 -2 140 -2t173 2q317 10 369 11q18 0 18 -18.5t-18 -18.5q-49 0 -369 -11q-92 -2 -168 -2t-137 2q111 -70 147 -90q16 -8 8 -24q-5 -11 -14 -11q-4 0 -10 3 q-41 23 -111.5 67.5t-91.5 54.5q-4 4 -6 11q-4 4 -4 10z" />
<glyph unicode="F" horiz-adv-x="532" d="M90 272q-5 6 -5 12q1 8 9 14q16 12 25 -5q35 -47 63 -98q0 92 -2 305t-2 327q0 19 18 19h1q18 0 18 -19q0 -115 2 -329.5t2 -311.5l21 25q35 45 53 76q9 14 25 5q10 -6 11 -15q0 -5 -3 -11q-20 -31 -58 -78l-59 -73q-6 -9 -13 -9q-6 0 -12 5q-8 4 -8 14q-39 80 -86 147z " />
<glyph unicode="G" horiz-adv-x="741" d="M5.5 318.5q-6.5 6.5 -6.5 12.5q0 7 7 13q129 129 459 500l-62 -17q-82 -20 -114 -32q-18 -4 -23.5 13t10.5 23q35 10 117 31q80 20 115 33q3 2 6 2l10 -4q12 -4 13 -16v-3v-4q-4 -35 -17 -106q-14 -70 -16 -107q-2 -18 -19.5 -17t-17.5 17q2 41 16 113q6 33 9 47 q-330 -369 -461 -498q-6 -7 -13 -7q-6 0 -12.5 6.5z" />
<glyph unicode="H" horiz-adv-x="737" d="M16 254v6q2 29 15 105q10 68 10 108q0 18 18.5 18.5t18.5 -18.5q0 -43 -10 -113q0 -2 -3.5 -20t-5.5 -29q291 324 441 516q6 8 13 8t13 -5q8 -6 8 -13q0 -6 -6 -14q-150 -193 -440 -514q20 6 62 16q74 23 110 37q16 8 23 -9.5t-11 -23.5q-37 -16 -112 -39 q-88 -27 -113 -34q-4 -2 -8 -3h-6q-18 2 -17 21z" />
<glyph unicode="I" horiz-adv-x="747" d="M8 154q-2 4 -2 8t2 8q61 133 92 219q6 18 23.5 11t9.5 -23q-25 -74 -70 -174l80 55l74 53q43 31 71.5 56.5t61.5 58.5t54.5 63.5t44 67.5t34 76t19.5 82q6 34 6 72v19q-2 48 -10 101q-2 15 15 19q3 1 5 1q13 0 17 -16q8 -55 10 -107v-18q1 -42 -7 -82q-10 -48 -22 -88.5 t-36.5 -80t-47 -71.5t-59.5 -67l-66 -61q-29 -27 -74 -60l-77 -55l-82 -55l55 -8q59 -10 98 -21q17 -5 13 -23q-4 -14 -15 -15q-3 0 -6 1q-39 10 -96 21q-82 12 -100 16q-12 2 -15 17z" />
<glyph unicode="J" horiz-adv-x="763" d="M31 866q0 18 19 18v1q18 0 18 -19q0 -227 113.5 -415.5t312.5 -298.5q-45 90 -60 137q-4 18 13.5 23t23.5 -11q8 -31 22.5 -62.5t34 -70.5t29.5 -62v-2q2 -2 2 -6q0 -12 -10 -16q-2 0 -2 -1t-2 -1q-121 -33 -166 -37h-3q-15 0 -18 17q-2 18 17 20q45 4 125 26 q-217 113 -343 315t-126 445z" />
<glyph unicode="K" horiz-adv-x="833" d="M14 511q10 85 45 167q51 113 141.5 189.5t196.5 82.5l-61 23q-82 31 -127 55q-16 10 -7 26q6 10 14 9q4 0 9 -2q43 -25 123 -53q98 -37 131 -52q8 -4 10 -12q8 -10 0 -22q-27 -41 -83 -113l-78 -102q-10 -16 -25.5 -5t-3.5 25l139 186q-13 1 -25 1q-89 0 -173 -62 q-94 -72 -148 -188q-45 -93 -45 -192q0 -22 2 -43q12 -122 101 -191q70 -54 197 -55q11 0 22 1q106 6 235 47q18 4 24 -13q1 -4 1 -8q0 -11 -13 -15q-135 -41 -247 -48q-16 -1 -31 -1q-134 0 -213 63q-65 53 -93 135q-20 61 -21 124q1 21 3 43z" />
<glyph unicode="L" horiz-adv-x="985" d="M74 811q-1 4 -1 7q0 11 11 16q82 37 170 157q6 9 14 9q6 0 12 -4q16 -11 3 -25q-59 -84 -119 -129q59 12 125 11q37 0 76 -3q106 -10 198 -49q121 -51 182 -146q38 -62 38 -140q0 -42 -11 -89q-12 -49 -34.5 -92t-46 -75t-62.5 -63.5t-68 -50t-79 -43t-77.5 -36 t-82.5 -31.5q-5 -3 -9 -3q-9 0 -15 12q-8 17 11 24l113 47q41 18 102.5 53t96 67.5t67.5 85t47 113.5q10 42 10 79q1 68 -33 123q-52 85 -163 132q-89 39 -197 47q-29 2 -56 2q-75 0 -138 -16q76 -33 141 -84q14 -10 3 -25.5t-28 -3.5q-86 68 -188 100q-13 5 -13 17q0 3 1 6 z" />
<glyph unicode="M" horiz-adv-x="970" d="M135 180v5q0 14 15 18q37 8 94 45q10 6 45 28.5t53 32.5q14 8 23.5 -7t-7.5 -26l-51 -30l-43 -29l-16 -10q197 20 327 121.5t152 226.5q4 24 4 46q0 111 -104 190q-146 110 -444 110h-5q-18 0 -18 18.5t18 18.5q313 0 471 -119q119 -92 119 -221q0 -24 -4 -49 q-25 -145 -174.5 -256t-368.5 -125q63 -27 101 -39q16 -5 11 -23q-4 -14 -17 -15q-3 0 -7 1q-16 6 -155 66q-10 4 -13 12q-4 4 -6 10z" />
<glyph unicode="N" d="M148 374q-4 25 -3 50q1 54 17 104q24 74 76 148q76 110 185 180q100 65 196 65q8 0 16 -1q18 -2 16 -20.5t-20 -16.5q-7 1 -15 1q-82 0 -174 -61q-102 -66 -174 -168q-49 -70 -71 -139q-14 -48 -14 -95q0 -21 3 -43q9 -68 56 -116q59 -61 196 -72q24 -1 53 -1t64 1 q14 0 40 1.5t38 1.5q-76 55 -113 69q-18 6 -11 23.5t23 9.5q27 -10 51.5 -24.5t59.5 -39.5l41 -30q9 -5 9 -13q0 -5 -3 -10q2 -12 -8 -18q-14 -10 -59 -49q-37 -33 -64 -50q-5 -3 -10 -3q-9 0 -15 10q-10 16 5 26q25 14 61 45l18 17q-6 -2 -28 -2h-33q-37 -1 -68 -1t-55 1 q-150 12 -217 84q-57 57 -69 136z" />
<glyph unicode="O" horiz-adv-x="765" d="M14 291v2v530q0 19 18 19h1q18 0 18 -19v-514q37 0 109.5 1t119 1t109 -1t115.5 -5l-94 103q-12 14 2 26t26 -2l117 -129q4 -6 4 -12q3 -5 3 -10q0 -9 -11 -15q-90 -49 -141 -96q-6 -6 -13 -6t-13 8q-12 14 1 27q41 37 98 71q-68 4 -140.5 4t-169.5 -1t-140 -1 q-18 0 -19 19z" />
<glyph unicode="P" horiz-adv-x="843" d="M53 199q2 10 13 12q18 16 77 57q49 33 74 56q12 14 25.5 0.5t-0.5 -25.5q-27 -27 -78 -61l-31 -21q8 0 246 4l164 6q33 0 51 2h6v13q2 25 2 69v207q-2 285 -6 338q-2 18 16 20h4q15 0 17 -16q4 -57 6 -342v-209q0 -43 -2 -67v-23q-2 -4 -2 -6q0 -6 -4 -10q-2 -6 -8 -8h-5 q-2 0 -6 -2h-16q-18 -2 -53 -3l-162 -6q-23 0 -109 -2t-116 -2l10 -6q78 -45 80 -47q16 -9 8 -25q-5 -11 -15 -11q-5 0 -10 3q-4 2 -82 47q-47 27 -79 35q-15 3 -15 18v5z" />
<glyph unicode="Q" horiz-adv-x="929" d="M-6 696q0 18 18.5 18.5t18.5 -18.5q0 -160 81 -238q75 -73 176 -73h15q106 8 186 86t91 209q-12 -10 -74 -53q-14 -12 -25.5 3t4.5 25q74 55 95 74q0 2 2 2q0 4 2 6q6 8 14 8q6 0 12 -6q10 -10 109 -88q8 -6 8 -14q0 -6 -6 -13q-12 -14 -27 -1l-78 63q-8 -147 -99 -238.5 t-210 -99.5q-10 -1 -21 -1q-115 0 -200 84q-92 91 -92 265z" />
<glyph unicode="R" horiz-adv-x="1060" d="M-29 332q-2 17 -2 34q1 118 87 202q98 96 239 108q18 1 35 1q123 0 231 -74q123 -85 172 -265l47 68q31 45 41 65q9 14 25 5q10 -6 11 -15q0 -5 -3 -10q-14 -23 -41 -61t-46 -69.5t-32 -62.5q-4 -12 -13 -12q-4 0 -9 2q-10 2 -13 14q-20 37 -58 81t-69 69 q-16 10 -4.5 25.5t25.5 2.5q51 -37 102 -106q-46 166 -158 240q-98 66 -211 66q-15 0 -30 -1q-129 -12 -215 -97q-75 -75 -76 -177q0 -14 2 -29q2 -18 -16.5 -20t-20.5 16z" />
<glyph unicode="S" horiz-adv-x="786" d="M150 925.5q0 18.5 18 18.5q252 0 358 -129q57 -69 57 -138q0 -41 -20 -81q-33 -68 -155 -174q-133 -115 -166 -162q-35 -51 -36 -101q0 -36 19 -71q39 -74 133 -88q29 -5 77 -5q24 0 54 1q-57 33 -88 74q-12 14 3.5 25t25.5 -5q43 -57 135 -90q12 -4 12 -15q0 -4 -2 -8 q-2 -10 -14 -12q-82 -47 -119 -131q-4 -11 -14 -11q-4 0 -10 2q-18 7 -8 25q25 57 79 109q-31 -1 -56 -1q-51 0 -81 5q-113 18 -159 109q-24 45 -24 90q0 60 42 121q10 12 19.5 24t23.5 27l22 22q8 8 28 25.5t25 23t28.5 25t25.5 21.5q117 100 147 161q15 32 15 64 q0 57 -47 115q-95 116 -326 116h-4q-18 0 -18 18.5z" />
<glyph unicode="T" horiz-adv-x="790" d="M147 924q-1 16 17 20q92 14 149 70q6 6 12 6q7 0 13 -8q14 -14 0 -27q-35 -33 -76 -51q178 -18 264 -123q60 -74 60 -143q0 -35 -15 -68q-23 -49 -102 -121q-14 -14 -64.5 -57t-74.5 -68q-37 -35 -61.5 -65.5t-41 -63t-16.5 -66.5t18 -69q39 -72 131 -86q28 -4 56 -5h31 h38q41 1 58 1q18 0 18 -18.5t-18 -18.5q-11 0 -55 -1h-40h-34q-30 1 -60 5q-111 18 -157 107q-17 36 -21 70l-2 20q0 23 6 44q8 30 28.5 62.5t43.5 57.5l51 53l78 68q49 43 63 57q74 68 95 110q11 25 11 51q0 56 -52 119q-86 106 -287 115q25 -29 47 -74q8 -16 -8.5 -24 t-24.5 8q-33 59 -71 94q-8 8 -7 19z" />
<glyph unicode="U" horiz-adv-x="1298" d="M147 202v10q0 124 48 234q49 129 137 212q80 76 176 75h18q18 -2 16.5 -20.5t-20.5 -16.5h-13q-81 0 -154 -68q-79 -74 -126 -196q-45 -108 -45 -220v-10q2 -116 60 -175q82 -89 232 -93h17q141 0 259 74q82 47 134 117t68 165q4 23 3 46q0 75 -37 158q-27 -86 -46 -168 q-4 -18 -22 -14.5t-14 22.5q23 92 61 221q6 16 25 12l4 -4q2 0 4 -2q119 -80 158 -139q5 -6 5 -12q-1 -8 -9 -14q-16 -12 -25 5q-33 45 -103 97q36 -86 36 -163q0 -29 -5 -57q-18 -102 -74.5 -176.5t-144.5 -126.5q-90 -51 -192 -69q-45 -8 -90 -9q-56 -1 -111 13 q-98 24 -162 92q-66 70 -68 200z" />
<glyph unicode="V" horiz-adv-x="735" d="M-82.5 194q-6.5 6 -6.5 13q0 6 7 12q8 10 41 43l45 45l45 43l49 47q18 16 46 39t52.5 40.5t51.5 33.5l-111 80q-14 8 -6 22q0 8 6 15q117 119 291 250q-45 -8 -85 -8q-12 0 -24 1q-18 2 -15.5 20.5t20.5 16.5q19 -2 37 -2q75 0 141 27q4 2 8 2q7 0 12 -8q8 -5 8 -14 q0 -4 -2 -9q-10 -23 -19 -47.5t-19.5 -59t-14.5 -51.5q-6 -16 -23.5 -11t-13.5 24q6 14 17 49l18 55q-186 -137 -301 -252q70 -49 119 -88q4 -2 6 -6t2 -8v-2q0 -4 -2 -6q0 -2 -2 -2q-2 -4 -6 -6q-27 -14 -52.5 -32t-54.5 -42l-47 -39q-20 -16 -53 -47l-45 -45l-49 -49 q-37 -37 -45 -43q-6 -7 -13 -7q-6 0 -12.5 6z" />
<glyph unicode="W" horiz-adv-x="1243" d="M242 393q-14 46 -14 94q0 87 46 177q68 130 201 208q100 59 202 58q34 0 68 -6q92 -18 167 -108.5t108 -207.5q19 -82 19 -154q1 -70 -33 -132q-34 -64 -101 -97q-16 -8 -24.5 8.5t8.5 24.5q81 40 105 138q9 39 10 80q0 60 -21 122q-31 111 -98.5 192.5t-147.5 96.5 q-31 6 -62 6q-89 0 -181 -53q-122 -72 -187 -195q-43 -82 -43 -160q0 -42 12 -82q35 -121 170 -198q-33 106 -57 168q-8 16 9.5 23t23.5 -11q25 -57 76 -215q4 -18 -13 -25h-8h-2q-137 0 -209 23q-16 6 -11 23.5t24 13.5q53 -18 133 -23q-133 84 -170 211z" />
<glyph unicode="X" horiz-adv-x="974" d="M8 236q-3 5 -3 9q1 9 13 14q18 7 23 -11q43 -119 184 -123h13q123 0 221 74q147 114 147 349q0 56 -8 118l-68 -129q-8 -16 -24.5 -8t-7.5 24l39 74l45 84q2 4 6 6q0 4 2 8q5 11 14 11q4 0 10 -3q20 -10 44 -31.5t38 -37.5l37 -46q25 -27 33 -34q6 -6 6 -13t-8 -13 q-14 -12 -27 1l-30 37l-39 43q-16 20 -33 35q9 -65 9 -124q0 -253 -165 -380q-49 -40 -119 -62q-64 -21 -124 -20h-11q-168 4 -217 148z" />
<glyph unicode="Y" horiz-adv-x="868" d="M2 713q2 2 4 6q0 2 2 6q6 11 15 11q5 0 10 -3q18 -8 37.5 -22.5t30 -22.5t30.5 -29l27 -26q14 -14 0.5 -27.5t-25.5 -1.5q-74 70 -90 82v-2q43 -254 199 -385q129 -106 407 -178q14 -5 14 -16q0 -4 -1 -7q-4 -15 -15 -15q-3 0 -6 1q-287 74 -422 186q-158 131 -207 375 q-23 -55 -28 -98q-2 -18 -20 -17q-17 2 -17 17q0 45 55 166z" />
<glyph unicode="Z" horiz-adv-x="972" d="M-20 440q0 113 67 176q49 47 108 47q34 0 72 -16q18 -8 42 -22.5t38 -26.5l45 -31q29 -20 39 -28q98 -72 162 -72h3q78 0 153 96q-39 -10 -93 -10q-18 0 -18 18.5t18 18.5q68 0 119 20q0 2 2 2q6 4 13 4q18 0 18 -18q0 -121 -6 -166q-2 -16 -17 -16h-3q-18 2 -17 20 q6 41 6 96q-82 -102 -176 -102h-4q-74 0 -180 78q-12 10 -40 30.5t-44 30.5l-37 25q-20 12 -37 20q-29 12 -55 12q-47 0 -86 -38q-55 -51 -56 -148q0 -18 -18 -18t-18 18z" />
<glyph unicode="a" horiz-adv-x="1183" d="M-133 362v13q1 117 67 213q70 102 189 170q113 62 241 82q49 8 96 9q75 0 144 -20q18 -6 13 -23t-21 -13q-63 18 -133 18q-46 0 -94 -8q-119 -18 -228 -78q-113 -63 -178 -156q-59 -88 -59 -194v-13q4 -145 125 -210q104 -52 264 -52q33 0 69 2q208 13 375 91 q178 80 203 188q4 16 4 32q0 106 -166 220q-16 10 -5 25.5t26 3.5q181 -123 181 -249q0 -21 -5 -42q-29 -123 -221 -213q-174 -78 -389 -92q-38 -3 -73 -3q-166 0 -280 56q-139 76 -145 243z" />
<glyph unicode="b" horiz-adv-x="1277" d="M-72 518q44 111 148 193q84 94 176 129q78 33 186 35q9 0 17 1q97 0 170 -22q63 -16 146 -58t153 -98q150 -119 150 -237q0 -25 -7 -51q-20 -74 -88 -136.5t-137.5 -95.5t-147.5 -55q-110 -31 -286 -31h-21q-297 4 -416 137q-68 75 -68 169q0 57 25 120zM-37 506 q-22 -56 -22 -106q0 -81 57 -146q111 -123 389 -125h21q173 0 278 31q119 33 218.5 99.5t125.5 158.5q6 21 6 43q0 101 -135 209q-68 53 -145 92q-80 41 -140 55q-74 21 -160 21h-3q-83 0 -158 -21q64 15 130 15q74 0 150 -19q18 -4 14 -22.5t-22 -14.5q-80 17 -150 17 q-57 1 -109 -11q-114 -26 -208 -98q-18 -20 -43 -51q-8 -8 -18 -6q-51 -57 -76 -121z" />
<glyph unicode="c" horiz-adv-x="1284" d="M-180 342q-2 14 -2 28q0 102 88 234q66 98 155 174q90 76 193 103q57 14 124 14q72 0 157 -16l53 -5q109 -8 209 -51q115 -51 190.5 -140t89.5 -206q3 -24 3 -48q0 -176 -167 -286q-160 -106 -417 -118q-33 -2 -65 -2q-210 0 -376 69q-213 90 -235 250zM-143 346 q10 -81 90 -147q-80 100 -80 207q0 29 6 59q-18 -49 -19 -90q1 -15 3 -29zM-96 401q2 -94 76 -184q82 -101 261 -121q46 -5 92 -5q131 0 257 44q184 57 287 162q86 89 86 189q0 29 -7 59q-18 82 -96 148.5t-190 109.5q-60 23 -121 35q-104 0 -187 -37q-131 -59 -228 -153.5 t-206 -239.5q-10 -14 -24 -7zM-94 438q94 125 179 212t194 149q-88 -31 -164 -80q-152 -100 -197 -230q-8 -24 -12 -51zM41 711q27 20 53 39q113 72 244 106q-41 -2 -76 -12q-112 -29 -221 -133zM408 59q41 0 86 2q248 10 399 113q150 100 150 256q0 21 -3 43 q-12 98 -73.5 177t-157.5 126q154 -92 184 -223q8 -33 7 -65q0 -115 -97 -216q-109 -113 -301 -174q-96 -29 -194 -39z" />
<glyph unicode="d" horiz-adv-x="1216" d="M-166 356q10 47 57 95q29 27 70 53q2 10 12 12l39 16q63 35 142 62q164 61 325 78q49 6 90 5q68 0 113 -15q182 -16 276 -111q54 -50 54 -107q0 -51 -39 -100q-59 -70 -185 -123q-82 -35 -213 -62.5t-262 -33.5q-34 -2 -65 -2q-290 0 -389 133q-28 35 -28 74q0 13 3 26z M-131 348q-2 -8 -2 -17q0 -27 20 -55q90 -116 359 -116q31 0 65 2q127 6 254 33t207 59q119 49 172 115q31 37 31 73q2 41 -41 84q-76 72 -209 92h-2q-10 -14 -25 -4q-10 6 -24 11q-8 2 -19 2q-31 2 -63 2q-118 0 -252 -29q-25 -4 -45 -10l-41 -8q-20 -6 -33 -11l-33 -10 q-20 -6 -28 -8l-31 -12q-23 -8 -31 -13l-32 -12l-37 -16q-70 -37 -111 -76t-49 -76z" />
<glyph unicode="e" horiz-adv-x="1230" d="M112 492q8 80 35 161q61 168 186.5 289t270.5 121q18 0 18 -18.5t-18 -18.5q-129 0 -246.5 -112.5t-175.5 -274.5q-35 -107 -37 -201v-7q-1 -90 45 -165q48 -78 142 -108q103 -37 197 -37q95 -1 180 37q170 74 243 231q33 73 36 151v16q0 70 -24 136q-28 74 -100.5 138.5 t-183.5 105.5q-18 6 -11 23.5t23 9.5q117 -41 196 -112q80 -71 110 -151q28 -73 27 -151v-15q-3 -85 -40 -165q-78 -170 -261 -250q-94 -41 -198 -41q-99 0 -207 37q-82 29 -132 86q-51 57 -67 131q-11 51 -11 104q1 25 3 50z" />
<glyph unicode="f" horiz-adv-x="1191" d="M53 928q-1 3 -1 6q0 13 16 16q64 12 161 12q30 0 64 -1q195 -6 221 -7q49 2 186.5 9.5t210.5 7.5h2q6 6 15 8h3q15 0 17 -16q18 -125 20 -373l19 -372q0 -15 -17 -17q-18 -2 -20 16q-16 119 -18 373q-2 229 -17 344h-4q-74 0 -210 -7t-187 -9q-27 0 -223 6q-43 2 -80 2 q-61 0 -105 -6v-7q0 -123 17 -395q14 -238 16 -358q166 0 272.5 2t254.5 14q145 14 266 41q18 4 22 -14.5t-14 -22.5q-121 -25 -270.5 -39t-257 -16t-273.5 -2v-2v-2q0 -18 -19 -19v0q-18 0 -18 19v2v2q-18 0 -18 18.5t18 18.5q-2 119 -16 354q-16 268 -16 399q-14 2 -17 15 z" />
<glyph unicode="g" horiz-adv-x="1232" d="M-10 350.5q0 18.5 18 18.5q168 0 501 -3.5t501 -3.5q18 0 18 -18t-18 -18q-168 0 -501 3t-501 3q-18 0 -18 18.5z" />
<glyph unicode="h" horiz-adv-x="1017" d="M33 211q0 8 6 14q-8 8 -2 19l416 762l-4 12q-4 18 12 24q4 1 7 1q9 0 15 -9q2 0 4 -2q16 -10 9 -24l-2 -7q143 -477 280 -751q8 -17 -8 -25h29q18 0 18 -18.5t-18 -18.5q-123 0 -371 2.5t-373 2.5q-18 0 -18 18zM72 229q117 0 343 -2t335 -2q-6 2 -9 8q-135 272 -272 723 z" />
<glyph unicode="i" horiz-adv-x="1091" d="M52 825h3q41 -6 86 -7h19q40 0 90 3q64 4 90 4q36 1 76 1q195 0 454 -17q17 -2 17 -18q-1 -1 -1 -3q-2 -18 -20 -16q-256 17 -451 17q-39 0 -75 -1q-25 0 -88.5 -3t-91 -3t-90.5 4q2 -2 2 -4q168 -336 407 -608q156 281 375 571q10 16 26 5q9 -6 8 -13q0 -6 -5 -12 q-92 -125 -203 -293t-178 -293q-5 -10 -17 -10h-4h-4q-8 0 -14 6q-250 281 -424 631q-8 14 6 25q-10 5 -10 15q0 19 17 19z" />
<glyph unicode="j" horiz-adv-x="759" d="M-12 420q10 12 137 182q84 113 149 176q5 7 12 7q5 0 11 -5q6 -2 10 -8q33 -57 74 -117l92 -139l78 -115q4 -6 4 -11q0 -7 -9 -13q-6 -4 -11 -4q-7 0 -13 8l-76 111l-90 131q-39 59 -71 114q-49 -49 -129 -157l-140 -185q-12 -14 -26 -1q-8 6 -8 13q0 6 6 13z" />
<glyph unicode="k" horiz-adv-x="782" d="M55 346q76 92 221 242q-127 143 -161 233q-8 16 9 23.5t23 -10.5q33 -82 154 -220q168 174 244 267q6 7 13 8q6 -1 14 -7q8 -7 7 -13q0 -6 -6 -13q-76 -92 -245 -268l-2 -2l12 -13q8 -8 47 -51t53 -59l41 -51q29 -33 48.5 -58.5t35.5 -50.5q8 -15 -7 -25q-6 -4 -11 -4 q-8 0 -15 9q-14 25 -32.5 49t-46 57t-41.5 49l-54 58q-39 45 -47 53l-8 10q-143 -145 -217 -237q-12 -14 -26 -2q-8 7 -8 14q0 6 5 12z" />
<glyph unicode="l" horiz-adv-x="974" d="M-70 794.5q0 18.5 18.5 18.5t37.5 2l-2 2q-2 4 -2 10l-17 -2q-14 -2 -16 -2h-2h-4q-6 0 -13 8q-3 6 -3 11q0 9 10 16h4l2 2h2h2h2q8 2 10 2q12 2 21 2l30 4q276 37 574 37h69q14 0 23 -4q20 -4 20 -22q0 -14 -14 -23q-6 -2 -14 -4h-13h-6q-86 -14 -217 -27 q-213 -20 -217 -20q-27 -2 -84 -10l-84 -13q20 -37 232 -436q61 -117 98 -178q18 25 37 59q182 438 321 717q5 11 14 11q5 0 11 -3q11 -5 11 -14q0 -4 -3 -10q-115 -229 -248 -541q4 -8 0 -16q-12 -23 -32.5 -70t-24.5 -57q-8 -18 -17 -33l-38 -92l14 -19q-12 -8 -25 -8 l-16 -37q-4 -13 -15 -13q-4 0 -8 2q-18 7 -10 24l19 47q-4 2 -9 6q-8 6 -6 16q-86 125 -92 131l-104 166q-35 55 -87.5 154.5t-80.5 181.5v8q-20 -2 -39 -2t-19 18.5zM18 831l9 -14l94 12l90 13q16 2 217 20q34 2 61 6q-254 -6 -471 -37zM68 672q35 -76 88 -166z" />
<glyph unicode="m" horiz-adv-x="1583" d="M-84 263q2 9 12 13q6 2 15 3h10h4q51 8 92 16q72 12 174 27q-133 -10 -225 -11q-18 0 -18 18.5t18 18.5q72 0 150.5 5t179 14.5t149.5 13.5q168 12 326 16h8q8 0 23.5 1t35 1t43.5 2h48q25 2 52 3.5t52 1.5q102 2 137 2h15q6 0 10 -2q8 -2 10 -13q4 -12 -8 -20l-6 -2 q-8 -2 -43 -4q-49 -4 -174 -11.5t-190.5 -12.5t-168 -12t-190.5 -16.5t-174 -21.5l-78 -10q68 4 78 4l2 2h2h4q2 0 8 2q12 0 35 2q51 2 158 8q53 2 161.5 5t161.5 5q213 8 545 8q18 0 18 -18t-18 -18q-340 0 -545 -9q-51 -2 -155.5 -5t-153.5 -5q-2 0 -4 -2l-4 -4h-4 q-6 -2 -105 -4q-47 -2 -70 -2h-16h-2h-2q-14 0 -81.5 -5t-111.5 -7q-76 -6 -116 -7h-41l-12 3q-4 2 -9 2q-6 4 -10 8q-3 5 -3 11q0 3 1 6z" />
<glyph unicode="n" horiz-adv-x="1306" d="M-172 451q-1 7 -1 14q0 78 83 131q55 35 151 57q61 14 121 23q68 16 150 24q114 11 217 11q45 0 88 -2q141 -7 217 -27q111 -31 182 -92q8 -6 15 -12l14 -5q16 -6 12 -24q-2 0 -2 -2q28 -39 28 -80q0 -35 -20 -72q-35 -63 -147 -108q-27 -12 -57 -25q-163 -70 -383 -70 q-131 0 -281 25q-104 16 -176 53l-12 6q-186 61 -199 175zM-135 455q6 -57 78 -103q-25 40 -25 89v14q6 84 84 143q-43 -14 -74 -35q-64 -39 -64 -96q0 -6 1 -12zM-45 451v-10q0 -77 86 -130q6 -2 12 -6q152 -47 369 -51q20 0 40 -1q201 0 361 38q56 15 97 31q82 41 102 85 q6 14 6 27q0 31 -31 62q-45 45 -134 78.5t-175 43.5q-8 2 -14 9q-152 25 -292 25q-101 0 -194 -13q-68 -18 -116 -43q-111 -55 -117 -145zM616 674q154 -20 330 -68q-49 27 -100 39q-78 23 -230 29zM973 561q31 -18 51 -39q33 -35 41 -71q1 6 1 12q0 42 -36 82z" />
<glyph unicode="o" horiz-adv-x="1280" d="M115 418q0 59 6 121q18 154 72 270q57 131 141 174q51 27 129 27q42 14 85 14q28 0 56 -6q18 -4 14 -23q-2 -6 -6 -10q150 -45 260 -137q190 -123 203 -305q1 -13 1 -27q0 -164 -136 -319q-106 -119 -257 -183q-104 -44 -202 -43q-45 0 -88 9q-55 8 -108 30 q-133 57 -164 242q-9 48 -9 102q0 31 3 64zM152 416q0 -248 102 -330q66 -53 147 -70q24 -3 47 -3q96 -1 194 45q122 56 210 159q74 84 108 177q26 69 26 142q0 26 -3 52q-14 100 -84 182q-20 25 -47 47l-41 25q-115 61 -276 84q-18 2 -16 20.5t20 16.5q20 -2 28 -5 q-51 12 -98 15q-61 -25 -119 -82q-109 -109 -164 -295q-29 -90 -34 -180zM207 750q51 100 117 168q25 23 49 40q-12 -4 -23 -8q-72 -37 -125 -155zM858 168q29 25 53 53q128 145 128 294q0 13 -1 26q-3 66 -34 123q19 -65 19 -129q0 -60 -17 -118q-35 -120 -125 -224 q-10 -12 -23 -25z" />
<glyph unicode="p" horiz-adv-x="1464" d="M-12 20.5q0 18.5 18 18.5h78q-2 55 -4 119q-2 29 -4 61q-4 49 -5 124t-3 87q-2 18 16 21q2 18 3 77.5t1 92.5q-4 96 -4 178v125h-2h-12h-23h-2h-4v37h4h2h23h14q0 33 2 57q0 33 2 47q2 8 3 13t5 9q10 10 23 5q25 -12 16 -48q0 -6 -2 -13t-3 -11t-1 -8v-51q72 0 141 2 q20 2 49 4q16 2 152 16q133 16 231 25q145 12 228 16q6 0 34.5 -1t32.5 -1q-4 18 -8 35q-4 18 14.5 22t22.5 -14l2 4q10 18 21 29q6 4 13 4h5q12 -2 14 -15v-12q0 -2 -2 -10v-4q-2 -39 -2 -43v-2v-2v-4q0 -2 -2 -2q82 6 164 14q21 2 21 -21q0 -14 -17 -16l-172 -16v-13 q-4 -61 -4 -217q0 -8 -10 -327l4 -47q2 -33 12 -240q2 -33 2 -47v-4l2 -4v-7l21 3q19 0 35 2q0 6 2 10q6 18 22 10q2 0 5 -1t7.5 -1t8.5 -2q25 -4 30 -25q2 -8 -4 -16q-2 -2 -6 -4l-2 -2h-4h-6q-6 -2 -17 -2q-29 -4 -67 -6l-25 -2v-7v-8v-10v-4q0 -2 -2 -6q-6 -6 -12 -8 q-10 0 -16 4q-4 6 -5 8l-2 2v2l-4 25q-88 -6 -192 -13q-195 -10 -565 -10h-129q-4 -2 -7 -4h-10q0 -63 -2 -86q0 -12 -2 -16q-2 -2 -2 -5q-4 -6 -13 -8q-2 -1 -4 -1q-6 0 -12 5q-2 2 -4 6.5t-2 8.5q-2 16 -6 73q0 12 -2 27h-78q-18 0 -18 18.5zM127 621q0 -41 23 -383 q0 -4 6 -154q2 -29 2 -45h126q364 0 560 10q100 6 188 10q-14 103 -14 250q0 49 2 103q-2 45 -2 301q0 152 -12 252q-195 -16 -527 -33q-41 -2 -71 -4q-154 -10 -249 -10h-30v-84q0 -88 -2 -213zM240 73.5q0 18.5 18 18.5q217 0 422 8q18 0 18 -18.5t-18 -18.5 q-205 -8 -422 -8q-18 0 -18 18.5z" />
<glyph unicode="q" horiz-adv-x="1085" d="M-59 279q-6 6 -6 12q0 8 8 14q6 6 12 6q8 0 14 -8q193 -214 396 -214q11 0 22 1q98 4 207 49q98 41 260 133q14 8 24 -7q3 -5 3 -10q0 -9 -11 -15q-152 -88 -264 -134.5t-217 -52.5q-11 -1 -22 -1q-221 0 -426 227z" />
<glyph unicode="r" horiz-adv-x="1140" d="M-20 498q-6 6 -6 12q0 7 8 14q82 70 208 100q111 27 234 27h33q135 -6 262 -43t209 -100q9 -6 9 -14q0 -6 -4 -12q-6 -9 -14 -8q-6 0 -12 5q-80 57 -200.5 93t-251.5 42h-32q-117 0 -222 -26q-119 -30 -195 -92q-14 -12 -26 2z" />
<glyph unicode="s" horiz-adv-x="681" d="M72 446q-3 5 -3 10q0 8 11 14q16 8 24 -7q31 -61 113 -203q63 117 227 315q6 8 14 8q6 0 12 -6q8 -7 8 -14q0 -6 -5 -12q-182 -221 -235 -332q0 -10 -11 -16q-5 -3 -9 -3q-8 0 -15 11q-106 186 -131 235z" />
<glyph unicode="t" horiz-adv-x="954" d="M43 547q156 172 209 221q6 6 13 6t13 -8q12 -14 -2 -27q-51 -47 -204 -217q-12 -14 -26 -2q-8 7 -8 15q0 6 5 12zM44 286q-7 6 -6 13q0 6 7 12q41 43 201 224q127 141 217 217q6 5 12 5q7 1 15 -7q12 -14 -3 -27q-88 -72 -213 -213q-160 -180 -204 -223q-12 -14 -26 -1z M69 83.5q-6 6.5 -6 12.5q0 7 7 13q240 240 536 585q6 8 14 8q6 0 12 -6q14 -12 3 -26q-299 -346 -541 -586q-6 -7 -12 -7q-7 0 -13 6.5zM296 138q-7 7 -6 13q0 6 7 13l391 393q6 7 13 7t13 -6q14 -13 -1 -26l-391 -393q-12 -15 -26 -1zM462 83.5q-6 6.5 -6 12.5q0 7 7 13 l256 262q6 7 13 7q6 0 12 -6t7 -13q0 -7 -8 -13l-256 -262q-6 -7 -12 -7q-7 0 -13 6.5z" />
<glyph unicode="u" horiz-adv-x="1114" d="M-6 436q-5 6 -5 12q0 8 8 14q15 12 26 -5l2 -2q29 27 57 63q-12 10 -2 25q57 80 166 202l143 164l-18 31q-8 16 8 24.5t24 -8.5q4 -8 11 -16l2 6q-12 12 1 26q6 7 13 6q6 0 12 -7q55 -53 136 -166q96 -135 122 -168q2 -4 56.5 -66.5t79.5 -99.5l30 31l6 8v-2l2 2v2 q4 2 6.5 4t6.5 2q8 2 14 0q8 -6 8 -16l-2 -10l-4 -5q-2 -2 -6 -8l-145 -164l-29 -36q-12 -18 -65.5 -93t-91.5 -122.5t-81 -88.5l-39 -53l-2 -2q-2 -4 -4 -6l-14 -18q-6 -9 -14 -9q-6 0 -12 4q-16 11 -3 25l6 10q-229 207 -337 400q-2 2 -3 6l-45 67q-10 -2 -18 7 q-8 10 -2 22zM47 424l66 -100q49 -78 84.5 -126t78.5 -92l52 -53q33 -35 51 -51q14 -14 20 -18l2 -2h2l7 -7l8 -8l4 4q18 14 35 29q133 182 266 340q49 63 84 102l-6 7l-13 12l-14 14l-61 76q-41 51 -62 74q-18 23 -41 47l-57 53l-49 47q-59 61 -94 107l-17 -21 q-37 -53 -76 -98q-39 -43 -139 -180q-76 -100 -131 -156zM434 907q35 -47 96 -108l21 -21l-4 6q-59 84 -105 136v-2z" />
<glyph unicode="v" horiz-adv-x="964" d="M-36 315.5q0 18.5 18 18.5q123 0 365.5 11t365.5 11q18 0 18 -18.5t-18 -18.5q-123 0 -366 -11t-365 -11q-18 0 -18 18.5zM-24 487.5q0 18.5 18 18.5q119 0 360.5 14.5t362.5 14.5q18 0 18 -18.5t-18 -18.5q-119 0 -360.5 -14.5t-362.5 -14.5q-18 0 -18 18.5zM-20 141.5 q0 18.5 18 18.5q125 0 371.5 8t371.5 8q19 0 19 -19q0 -18 -19 -18q-125 0 -371.5 -8t-371.5 -8q-18 0 -18 18.5zM-20 682q0 18 18 18q121 0 362.5 11.5t362.5 11.5q18 0 18 -18.5t-18 -18.5q-121 0 -362.5 -11t-362.5 -11q-18 0 -18 18z" />
<glyph unicode="w" horiz-adv-x="778" d="M6 123q6 27 6 58.5t-1 71.5t-1 62q2 49 7.5 187.5t5.5 214.5q0 18 18 18t18 -18q0 -76 -5 -215.5t-7 -186.5q0 -20 1 -61v-39v-36q-1 -34 -5 -64q-4 -16 -21.5 -13t-15.5 21zM190 416q8 207 25 311q2 18 20.5 16t16.5 -20q-16 -106 -25 -309q-10 -256 -14 -314 q-2 -16 -17 -16h-4q-17 2 -16 17zM342 111q21 92 21 234q0 28 -1 58q-1 69 -1 123q0 136 4 179q2 18 20 16t16 -21q-3 -37 -3 -156q0 -60 1 -141q1 -27 1 -52q0 -152 -21 -249q-3 -14 -16 -14h-7q-15 4 -15 17q0 3 1 6zM506 109q2 41 10 149l10 164q4 57 7.5 144t3.5 161 q0 18 18 18t19 -18q0 -129 -31 -623q-2 -16 -16 -16h-5q-18 2 -16 21z" />
<glyph unicode="x" horiz-adv-x="1097" d="M-26 190q-6 7 -6 14t7 13l109 82l100 74q43 31 117 77t105.5 67.5t119.5 72.5l109 61l119 70q102 57 112 63q5 3 9 3q9 0 15 -10q4 -6 3 -10q0 -8 -10 -15l-99 -56l-104 -61l-98 -55q-72 -41 -107 -64l-94 -57q-61 -39 -102 -66l-91 -65q-53 -35 -98 -70l-90 -70 q-6 -5 -12 -5q-7 -1 -14 7z" />
<glyph unicode="y" horiz-adv-x="940" d="M-23 111l7 8q2 2 8 4q27 16 45 41l61 82q82 113 197 241l2 2q-111 104 -188 195q-76 86 -125 184q-8 17 8 25l-4 10q-4 10 -6 18.5t0 14.5q4 16 20 16q8 0 16 -6q4 -2 11 -8q10 -8 24 -25l62 -77q18 -23 41 -54l34 -47q14 -18 17 -20l133 -162q66 76 158 164l104 96 l14 12q29 29 48 43l18 13q12 6 20 6h7q8 -2 12 -8q6 -10 0 -21q-2 -4 -4 -6q-4 -4 -15 -10q-25 -12 -26 -15l-47 -41q-45 -43 -111 -112l-145 -158l4 -2l182 170q14 12 26.5 -2t-1.5 -27q-92 -80 -183 -170l154 -166q2 -2 92 -81q59 -53 86 -95q0 -2 2 -4v-14 q-6 -16 -22 -12q-2 2 -5 3t-10 7l-8 6l-6 6l-27 19h-2q-4 4 -8 6q-2 2 -3 2t-1 2q-2 0 -4 2q-6 2 -10 6l-35 41q-82 70 -154 141l-88 82l-18 -16q-98 -102 -144 -154q-4 -4 -65 -78q-41 -49 -72 -77q-2 0 -4 -5l-8 -8q-14 -14 -29 -14h-12q-8 0 -12 2q-6 2 -8 6q-4 5 -4 12 q0 3 1 7zM297 432l12 12l17 19h-2z" />
<glyph unicode="z" horiz-adv-x="815" d="M-4 503.5q0 18.5 18 18.5q96 0 279 -12q10 152 10 242q0 18 18.5 18t18.5 -18q0 -92 -10 -244q168 -12 262 -12q18 0 18 -18.5t-18 -18.5q-96 0 -264 12q-12 -186 -13 -278q0 -19 -18 -19h-1q-17 0 -17 19q0 94 12 280q-180 12 -277 12q-18 0 -18 18.5z" />
<glyph unicode="&#x2000;" horiz-adv-x="682" />
<glyph unicode="&#x2001;" horiz-adv-x="1365" />
<glyph unicode="&#x2002;" horiz-adv-x="682" />
<glyph unicode="&#x2003;" horiz-adv-x="1365" />
<glyph unicode="&#x2004;" horiz-adv-x="455" />
<glyph unicode="&#x2005;" horiz-adv-x="341" />
<glyph unicode="&#x2006;" horiz-adv-x="227" />
<glyph unicode="&#x2007;" horiz-adv-x="227" />
<glyph unicode="&#x2008;" horiz-adv-x="170" />
<glyph unicode="&#x2009;" horiz-adv-x="273" />
<glyph unicode="&#x200a;" horiz-adv-x="75" />
<glyph unicode="&#x202f;" horiz-adv-x="273" />
<glyph unicode="&#x205f;" horiz-adv-x="341" />
<glyph unicode="&#xe000;" horiz-adv-x="788" d="M0 0v788h788v-788h-788z" />
</font>
</defs>
</svg>
